# xmcd CD database file
# 
# Track frame offsets:
# 	182
# 	12805
# 	20945
# 	31855
# 	43875
# 	56722
# 	68572
# 	81402
# 	95147
# 	112132
# 	124845
# 	137055
# 	148900
# 	158660
# 	169670
# 	182410
# 	193735
# 	203737
# 	218412
# 	230432
# 
# Disc length: 3230 seconds
# 
# Submitted via: Nero 5.5.10.35
# 
# Revision: 0
# Processed by: cddbd v1.4PL0 Copyright (c) Steve Scherf et al.
#
DISCID=210c9c14
DTITLE=Lazy Harry - Best Aussie Folk Songs
DYEAR=1900
DGENRE=
TTITLE0=Visiting Australia
TTITLE1=Woolloomooloo
TTITLE2=Three Rivers Hotel
TTITLE3=Duncan
TTITLE4=Tomawking Fred
TTITLE5=I Made a Hundred
TTITLE6=Snowy River Roll
TTITLE7=The Banks of the Condamine
TTITLE8=Such is Life
TTITLE9=Waltzing Matilda
TTITLE10=Flash Jack from Gundagai
TTITLE11=The Workers
TTITLE12=Friendly Fauna
TTITLE13=Wallaby Stew
TTITLE14=Old Man Emu
TTITLE15=Diamantina Drover
TTITLE16=Poor Ned Kelly
TTITLE17=Maranoa Drovers
TTITLE18=My Old Black Billy
TTITLE19=Weary Dunlop
EXTD=
EXTT0=
EXTT1=
EXTT2=
EXTT3=
EXTT4=
EXTT5=
EXTT6=
EXTT7=
EXTT8=
EXTT9=
EXTT10=
EXTT11=
EXTT12=
EXTT13=
EXTT14=
EXTT15=
EXTT16=
EXTT17=
EXTT18=
EXTT19=
PLAYORDER=
